<?xml version="1.0" encoding="UTF-8"?>
<svg version="1.1" xmlns="http://www.w3.org/2000/svg" width="1536" height="1024">
<path d="M0 0 C506.88 0 1013.76 0 1536 0 C1536 337.92 1536 675.84 1536 1024 C1029.12 1024 522.24 1024 0 1024 C0 686.08 0 348.16 0 0 Z " fill="#FCF7FC" transform="translate(0,0)"/>
<path d="M0 0 C3.63295811 0.00315066 7.26509156 -0.02035448 10.89794922 -0.0456543 C26.1629427 -0.08760514 40.95620326 0.93512242 56.03466797 3.31567383 C56.76290771 3.42918182 57.49114746 3.54268982 58.24145508 3.65963745 C94.68730979 9.46494145 130.58089857 21.74847104 163.03466797 39.31567383 C163.67500977 39.66194824 164.31535156 40.00822266 164.97509766 40.36499023 C169.05059644 42.59164127 173.05189591 44.92783337 177.03466797 47.31567383 C177.65760742 47.6862793 178.28054688 48.05688477 178.92236328 48.4387207 C189.47642976 54.74701902 199.3641335 61.72795154 209.03466797 69.31567383 C209.71062012 69.84596191 210.38657227 70.37625 211.08300781 70.92260742 C231.00805553 86.64792991 250.50823912 104.17801235 266.03466797 124.31567383 C266.93207891 125.40461365 267.83339562 126.49034193 268.73779297 127.57348633 C280.69981873 141.99746391 291.09155494 157.67330451 299.90429688 174.20776367 C301.12881863 176.4912455 302.38436628 178.75627081 303.64013672 181.02270508 C344.34968336 255.4880347 351.67609833 343.8798507 328.15576172 424.91333008 C315.84985669 465.65271582 295.58857158 502.21139275 269.03466797 535.31567383 C268.22771484 536.32887695 267.42076172 537.34208008 266.58935547 538.38598633 C259.87635195 546.59732721 252.44502789 554.11587437 244.97216797 561.62817383 C244.4654657 562.14014313 243.95876343 562.65211243 243.43670654 563.17959595 C236.64162381 570.02920085 229.62070847 576.33318661 222.03466797 582.31567383 C220.59834934 583.47698288 219.16214308 584.63843093 217.72607422 585.80004883 C202.70655558 597.74992416 186.8085283 608.1734446 169.92285156 617.29370117 C168.03286958 618.3166472 166.15261431 619.35594531 164.27294922 620.39770508 C149.24484165 628.65924045 133.59868594 634.73443593 117.44799805 640.44433594 C115.34774472 641.20263681 113.27736978 642.01069795 111.20263672 642.83520508 C105.56060964 644.96038283 99.69250711 646.31078135 93.84716797 647.75317383 C91.98040405 648.21385254 91.98040405 648.21385254 90.07592773 648.68383789 C62.52491335 655.39055613 35.15424559 658.86254326 6.76269531 658.70678711 C3.27092867 658.69061018 -0.21969214 658.70681351 -3.71142578 658.72583008 C-25.2701562 658.74569046 -45.9444483 655.93192761 -66.96533203 651.31567383 C-67.80241699 651.13810547 -68.63950195 650.96053711 -69.50195312 650.77758789 C-82.85260514 647.93032852 -95.58857572 643.95503137 -108.3984375 639.25170898 C-110.62313793 638.44045718 -112.85429116 637.65769946 -115.09423828 636.88989258 C-168.07319924 618.16218896 -220.21719411 580.65644442 -254.96533203 536.31567383 C-256.38080819 534.62717511 -257.79751661 532.93970878 -259.21533203 531.25317383 C-269.20778071 519.0071834 -278.2414596 506.10371953 -285.96533203 492.31567383 C-286.48740234 491.39286621 -287.00947266 490.47005859 -287.54736328 489.51928711 C-299.48673628 468.3053391 -309.26154673 446.73385093 -315.96533203 423.31567383 C-316.21234863 422.47391602 -316.45936523 421.6321582 -316.71386719 420.76489258 C-332.95313591 365.22844475 -333.64323355 306.49405488 -319.96533203 250.31567383 C-319.75650391 249.45796387 -319.54767578 248.60025391 -319.33251953 247.71655273 C-318.03933127 242.52979016 -316.57192771 237.41369207 -314.96533203 232.31567383 C-314.69527344 231.4576416 -314.42521484 230.59960938 -314.14697266 229.71557617 C-300.12756989 185.93202196 -276.45286755 144.71721938 -245.31298828 110.88208008 C-243.26209105 108.64008427 -241.2605567 106.36776354 -239.27783203 104.06567383 C-234.29830297 98.3531767 -228.93114103 93.20249972 -223.19189453 88.26098633 C-220.61618788 86.0106321 -218.10599113 83.69541474 -215.59033203 81.37817383 C-206.00128864 72.6668161 -195.72488787 65.14725355 -185.08642578 57.78540039 C-183.75006165 56.85942064 -182.41633722 55.92960835 -181.08642578 54.99438477 C-144.5971255 29.35162924 -101.88760718 13.09454106 -58.21533203 5.06567383 C-57.53962158 4.94052399 -56.86391113 4.81537415 -56.16772461 4.68643188 C-51.44463058 3.82058403 -46.71315931 3.03354892 -41.96533203 2.31567383 C-41.29955139 2.21429108 -40.63377075 2.11290833 -39.94781494 2.00845337 C-26.66967342 0.06826193 -13.39896493 -0.02420528 0 0 Z " fill="#FAF6FB" transform="translate(763.96533203125,167.684326171875)"/>
<path d="M0 0 C3.63295811 0.00315066 7.26509156 -0.02035448 10.89794922 -0.0456543 C26.1629427 -0.08760514 40.95620326 0.93512242 56.03466797 3.31567383 C56.76290771 3.42918182 57.49114746 3.54268982 58.24145508 3.65963745 C94.68730979 9.46494145 130.58089857 21.74847104 163.03466797 39.31567383 C163.67500977 39.66194824 164.31535156 40.00822266 164.97509766 40.36499023 C169.05059644 42.59164127 173.05189591 44.92783337 177.03466797 47.31567383 C177.65760742 47.6862793 178.28054688 48.05688477 178.92236328 48.4387207 C189.47642976 54.74701902 199.3641335 61.72795154 209.03466797 69.31567383 C209.71062012 69.84596191 210.38657227 70.37625 211.08300781 70.92260742 C231.00805553 86.64792991 250.50823912 104.17801235 266.03466797 124.31567383 C266.93207891 125.40461365 267.83339562 126.49034193 268.73779297 127.57348633 C280.69981873 141.99746391 291.09155494 157.67330451 299.90429688 174.20776367 C301.12881863 176.4912455 302.38436628 178.75627081 303.64013672 181.02270508 C344.34968336 255.4880347 351.67609833 343.8798507 328.15576172 424.91333008 C315.84985669 465.65271582 295.58857158 502.21139275 269.03466797 535.31567383 C268.22771484 536.32887695 267.42076172 537.34208008 266.58935547 538.38598633 C259.87635195 546.59732721 252.44502789 554.11587437 244.97216797 561.62817383 C244.4654657 562.14014313 243.95876343 562.65211243 243.43670654 563.17959595 C236.64162381 570.02920085 229.62070847 576.33318661 222.03466797 582.31567383 C220.59834934 583.47698288 219.16214308 584.63843093 217.72607422 585.80004883 C202.70655558 597.74992416 186.8085283 608.1734446 169.92285156 617.29370117 C168.03286958 618.3166472 166.15261431 619.35594531 164.27294922 620.39770508 C149.24484165 628.65924045 133.59868594 634.73443593 117.44799805 640.44433594 C115.34774472 641.20263681 113.27736978 642.01069795 111.20263672 642.83520508 C105.56060964 644.96038283 99.69250711 646.31078135 93.84716797 647.75317383 C91.98040405 648.21385254 91.98040405 648.21385254 90.07592773 648.68383789 C62.52491335 655.39055613 35.15424559 658.86254326 6.76269531 658.70678711 C3.27092867 658.69061018 -0.21969214 658.70681351 -3.71142578 658.72583008 C-25.2701562 658.74569046 -45.9444483 655.93192761 -66.96533203 651.31567383 C-67.80241699 651.13810547 -68.63950195 650.96053711 -69.50195312 650.77758789 C-82.85260514 647.93032852 -95.58857572 643.95503137 -108.3984375 639.25170898 C-110.62313793 638.44045718 -112.85429116 637.65769946 -115.09423828 636.88989258 C-168.07319924 618.16218896 -220.21719411 580.65644442 -254.96533203 536.31567383 C-256.38080819 534.62717511 -257.79751661 532.93970878 -259.21533203 531.25317383 C-269.20778071 519.0071834 -278.2414596 506.10371953 -285.96533203 492.31567383 C-286.48740234 491.39286621 -287.00947266 490.47005859 -287.54736328 489.51928711 C-299.48673628 468.3053391 -309.26154673 446.73385093 -315.96533203 423.31567383 C-316.21234863 422.47391602 -316.45936523 421.6321582 -316.71386719 420.76489258 C-332.95313591 365.22844475 -333.64323355 306.49405488 -319.96533203 250.31567383 C-319.75650391 249.45796387 -319.54767578 248.60025391 -319.33251953 247.71655273 C-318.03933127 242.52979016 -316.57192771 237.41369207 -314.96533203 232.31567383 C-314.69527344 231.4576416 -314.42521484 230.59960938 -314.14697266 229.71557617 C-300.12756989 185.93202196 -276.45286755 144.71721938 -245.31298828 110.88208008 C-243.26209105 108.64008427 -241.2605567 106.36776354 -239.27783203 104.06567383 C-234.29830297 98.3531767 -228.93114103 93.20249972 -223.19189453 88.26098633 C-220.61618788 86.0106321 -218.10599113 83.69541474 -215.59033203 81.37817383 C-206.00128864 72.6668161 -195.72488787 65.14725355 -185.08642578 57.78540039 C-183.75006165 56.85942064 -182.41633722 55.92960835 -181.08642578 54.99438477 C-144.5971255 29.35162924 -101.88760718 13.09454106 -58.21533203 5.06567383 C-57.53962158 4.94052399 -56.86391113 4.81537415 -56.16772461 4.68643188 C-51.44463058 3.82058403 -46.71315931 3.03354892 -41.96533203 2.31567383 C-41.29955139 2.21429108 -40.63377075 2.11290833 -39.94781494 2.00845337 C-26.66967342 0.06826193 -13.39896493 -0.02420528 0 0 Z M-122.96533203 85.31567383 C-124.10204346 85.93152344 -124.10204346 85.93152344 -125.26171875 86.55981445 C-143.85299546 96.6630622 -161.13875019 108.25524678 -176.96533203 122.31567383 C-177.73103516 122.97180664 -178.49673828 123.62793945 -179.28564453 124.30395508 C-183.72527446 128.11055793 -187.87331302 132.14089489 -191.96533203 136.31567383 C-194.40151773 138.76370484 -196.84591388 141.19981449 -199.32470703 143.60473633 C-208.14775462 152.22594949 -215.54090699 161.61578667 -222.77783203 171.56567383 C-223.60504761 172.70069336 -223.60504761 172.70069336 -224.44897461 173.85864258 C-230.21974645 181.02032976 -230.21974645 181.02032976 -232.96533203 189.31567383 C-233.62533203 189.31567383 -234.28533203 189.31567383 -234.96533203 189.31567383 C-235.46162109 190.30825195 -235.95791016 191.30083008 -236.46923828 192.32348633 C-236.79432373 192.97357666 -237.11940918 193.62366699 -237.4543457 194.29345703 C-238.17742447 195.73977902 -238.90023823 197.18623352 -239.62280273 198.6328125 C-241.36897363 202.12782837 -243.11771836 205.62141293 -244.87939453 209.10864258 C-254.59845561 226.41348134 -254.59845561 226.41348134 -258.96533203 245.31567383 C-259.62533203 245.31567383 -260.28533203 245.31567383 -260.96533203 245.31567383 C-261.14708984 246.14969727 -261.32884766 246.9837207 -261.51611328 247.84301758 C-261.76748047 248.96836914 -262.01884766 250.0937207 -262.27783203 251.25317383 C-262.52146484 252.35532227 -262.76509766 253.4574707 -263.01611328 254.59301758 C-263.71081722 257.31751493 -264.47717342 259.83513016 -265.41064453 262.47192383 C-276.22821511 294.29246173 -276.37608115 332.33307211 -271.96533203 365.31567383 C-271.82853027 366.41758057 -271.82853027 366.41758057 -271.68896484 367.54174805 C-270.33132328 378.30998932 -268.03365587 388.82241579 -265.52783203 399.37817383 C-265.09531128 401.21593384 -265.09531128 401.21593384 -264.65405273 403.09082031 C-262.93883689 410.11538046 -260.83690366 416.68513274 -257.96533203 423.31567383 C-257.34332416 424.83820781 -256.72351091 426.36164033 -256.10595703 427.88598633 C-251.81965474 438.26613561 -247.21214132 448.38589852 -241.96533203 458.31567383 C-241.58119141 459.0467334 -241.19705078 459.77779297 -240.80126953 460.53100586 C-235.23660351 471.04777588 -229.15012246 480.83370551 -221.96533203 490.31567383 C-221.07587891 491.50676758 -221.07587891 491.50676758 -220.16845703 492.72192383 C-218.47143425 494.95229663 -216.72783638 497.13671276 -214.96533203 499.31567383 C-214.27181641 500.19481445 -213.57830078 501.07395508 -212.86376953 501.97973633 C-206.61371192 509.65837854 -199.7728176 516.69655884 -192.77783203 523.69067383 C-192.30465546 524.16475677 -191.83147888 524.63883972 -191.34396362 525.12728882 C-175.30908742 541.1586948 -157.53709629 554.85420952 -137.96533203 566.31567383 C-137.30484863 566.71028809 -136.64436523 567.10490234 -135.96386719 567.51147461 C-117.27232597 578.62983457 -97.12111991 587.84535024 -76.15527344 593.70092773 C-73.94192705 594.32224392 -71.74102467 594.97784987 -69.53955078 595.63989258 C-45.38385522 602.78573131 -21.26431786 605.48325725 3.84716797 605.50317383 C4.58066467 605.50426147 5.31416138 605.50534912 6.06988525 605.50646973 C44.88160525 605.49995022 82.4906916 597.92578544 118.03466797 582.31567383 C119.80749285 581.5642269 121.58091243 580.81418111 123.35498047 580.06567383 C150.15906272 568.5807696 174.63648537 552.07053195 196.03466797 532.31567383 C197.67979336 530.85654192 199.32563538 529.39821762 200.97216797 527.94067383 C210.11891878 519.68279222 218.44276029 511.0237927 226.03466797 501.31567383 C226.83646484 500.30762695 227.63826172 499.29958008 228.46435547 498.26098633 C248.74356887 472.55890816 263.81584084 443.39233726 274.03466797 412.31567383 C274.36466797 411.31487793 274.69466797 410.31408203 275.03466797 409.28295898 C286.52620026 373.295456 289.36043074 333.65390194 284.03466797 296.31567383 C283.90576172 295.38625977 283.77685547 294.4568457 283.64404297 293.49926758 C276.76674192 245.16712411 256.82182688 200.17313959 226.03466797 162.31567383 C225.58349609 161.76008789 225.13232422 161.20450195 224.66748047 160.63208008 C217.69385041 152.13658048 210.15337087 144.23576844 202.40966797 136.44067383 C201.12225708 135.13936523 201.12225708 135.13936523 199.80883789 133.81176758 C193.86054896 127.89237309 187.60861203 122.5263757 181.03466797 117.31567383 C179.96294702 116.44601322 178.89130954 115.57624973 177.81982422 114.70629883 C153.23573698 95.37763339 125.44883272 80.77642909 96.03466797 70.31567383 C94.69610744 69.82353764 93.35756404 69.33135484 92.01904297 68.83911133 C82.35262308 65.42866448 72.44510823 63.10165127 62.45214844 60.86254883 C60.92207332 60.51641994 59.39457631 60.15850395 57.87109375 59.78442383 C0.02899972 45.90973522 -71.30652756 56.70956091 -122.96533203 85.31567383 Z " fill="#DA6439" transform="translate(763.96533203125,167.684326171875)"/>
<path d="M0 0 C1.2657637 0.00465271 1.2657637 0.00465271 2.55709839 0.00939941 C30.29728722 0.12823603 57.15691385 2.51066415 83.79785156 10.58349609 C86.01465972 11.25443692 88.23735889 11.90268117 90.4609375 12.55078125 C129.36974165 24.13018788 165.76538581 43.29182139 197 69.25 C198.00933594 70.07371094 199.01867187 70.89742188 200.05859375 71.74609375 C207.37960906 77.80687244 214.21432129 84.28333158 220.9375 91 C221.73019287 91.79188721 222.52288574 92.58377441 223.33959961 93.3996582 C228.08809562 98.19326818 232.63176828 103.10803686 237 108.25 C237.46510986 108.79237305 237.93021973 109.33474609 238.40942383 109.89355469 C252.70507145 126.74022473 264.95705479 145.58366974 275 165.25 C275.37672852 165.98428223 275.75345703 166.71856445 276.14160156 167.47509766 C296.21463278 207.0659486 306.40011239 249.66904418 306.31567383 293.96801758 C306.31252099 297.41454965 306.33603551 300.8602143 306.36132812 304.30664062 C306.44279032 332.94534079 302.65480937 365.06754901 291.08203125 391.625 C290.20132282 393.7615923 289.43185618 395.8736195 288.69921875 398.0625 C285.52445419 407.54740998 281.74836359 416.37512164 277.07080078 425.21435547 C275.9732294 427.30089222 274.904713 429.40051405 273.83984375 431.50390625 C268.86956681 441.23469722 263.32239264 450.34214686 257 459.25 C256.47245117 459.99540039 255.94490234 460.74080078 255.40136719 461.50878906 C237.98826887 485.96357936 217.49661456 509.63014592 193 527.25 C191.79219111 528.16000664 190.58653563 529.07287695 189.3828125 529.98828125 C180.58901308 536.63044301 171.47026859 542.61909189 162 548.25 C161.35450195 548.63397949 160.70900391 549.01795898 160.04394531 549.41357422 C130.69679792 566.71348891 99.05729838 578.15693991 65.875 585.5625 C64.28812378 585.92637817 64.28812378 585.92637817 62.66918945 586.29760742 C44.52669378 590.16565477 26.02360888 590.5823538 7.53955078 590.51074219 C4.23842207 590.49996219 0.93783182 590.51074654 -2.36328125 590.5234375 C-19.08890199 590.53553839 -35.18827903 589.27777314 -51.625 586.0625 C-52.7169165 585.84964355 -53.80883301 585.63678711 -54.93383789 585.41748047 C-100.51165194 576.18179467 -143.48527193 555.95270301 -180 527.25 C-180.68078613 526.72857422 -181.36157227 526.20714844 -182.06298828 525.66992188 C-191.87628992 518.14332911 -200.75212668 509.77998185 -209.5 501.0625 C-210.00719574 500.5589801 -210.51439148 500.05546021 -211.03695679 499.53668213 C-217.81156729 492.78779713 -224.05436161 485.74856448 -230 478.25 C-231.26937142 476.7071294 -232.53999212 475.16528477 -233.8125 473.625 C-259.06407457 441.73615385 -275.62766663 405.43142297 -286 366.25 C-286.30550781 365.14785156 -286.61101562 364.04570313 -286.92578125 362.91015625 C-292.88718481 340.62367833 -294.39455933 317.52823483 -294.3125 294.5625 C-294.31134186 293.55419128 -294.31018372 292.54588257 -294.30899048 291.50701904 C-294.27500695 276.53082113 -293.65700406 262.01851425 -291 247.25 C-290.77845876 245.8376746 -290.5595784 244.42492845 -290.34375 243.01171875 C-288.54749189 231.84663522 -285.29771693 221.04785338 -282 210.25 C-281.79117187 209.56019043 -281.58234375 208.87038086 -281.3671875 208.15966797 C-278.01231265 197.20320586 -273.61299228 186.72585459 -269 176.25 C-268.70335449 175.57404785 -268.40670898 174.8980957 -268.10107422 174.20166016 C-255.15847109 144.95329889 -236.43574132 117.03926627 -214 94.25 C-213.29439941 93.52538574 -212.58879883 92.80077148 -211.86181641 92.05419922 C-193.89221195 73.63359872 -193.89221195 73.63359872 -184 66.25 C-183.31470215 65.73131348 -182.6294043 65.21262695 -181.92333984 64.67822266 C-171.89099355 57.09320246 -161.76763834 49.7575062 -151 43.25 C-150.43410156 42.90727051 -149.86820313 42.56454102 -149.28515625 42.21142578 C-118.1524998 23.5508998 -85.18562683 11.49687587 -49.6875 4.5 C-48.68750977 4.30124268 -47.68751953 4.10248535 -46.65722656 3.89770508 C-31.13100616 0.96991069 -15.77672588 -0.10411484 0 0 Z M-123 51.25 C-124.13671143 51.86584961 -124.13671143 51.86584961 -125.29638672 52.49414062 C-143.88766343 62.59738838 -161.17341816 74.18957295 -177 88.25 C-177.76570312 88.90613281 -178.53140625 89.56226563 -179.3203125 90.23828125 C-183.75994243 94.0448841 -187.90798099 98.07522106 -192 102.25 C-194.4361857 104.69803101 -196.88058185 107.13414067 -199.359375 109.5390625 C-208.18242258 118.16027566 -215.57557496 127.55011284 -222.8125 137.5 C-223.63971558 138.63501953 -223.63971558 138.63501953 -224.48364258 139.79296875 C-230.25441442 146.95465593 -230.25441442 146.95465593 -233 155.25 C-233.66 155.25 -234.32 155.25 -235 155.25 C-235.49628906 156.24257813 -235.99257813 157.23515625 -236.50390625 158.2578125 C-236.8289917 158.90790283 -237.15407715 159.55799316 -237.48901367 160.2277832 C-238.21209244 161.67410519 -238.9349062 163.1205597 -239.6574707 164.56713867 C-241.4036416 168.06215454 -243.15238632 171.5557391 -244.9140625 175.04296875 C-254.63312358 192.34780752 -254.63312358 192.34780752 -259 211.25 C-259.66 211.25 -260.32 211.25 -261 211.25 C-261.18175781 212.08402344 -261.36351562 212.91804687 -261.55078125 213.77734375 C-261.80214844 214.90269531 -262.05351562 216.02804687 -262.3125 217.1875 C-262.55613281 218.28964844 -262.79976563 219.39179688 -263.05078125 220.52734375 C-263.74548519 223.2518411 -264.51184139 225.76945633 -265.4453125 228.40625 C-276.26288308 260.2267879 -276.41074912 298.26739828 -272 331.25 C-271.86319824 332.35190674 -271.86319824 332.35190674 -271.72363281 333.47607422 C-270.36599125 344.24431549 -268.06832384 354.75674196 -265.5625 365.3125 C-265.12997925 367.15026001 -265.12997925 367.15026001 -264.6887207 369.02514648 C-262.97350486 376.04970664 -260.87157163 382.61945891 -258 389.25 C-257.37799213 390.77253398 -256.75817888 392.2959665 -256.140625 393.8203125 C-251.85432271 404.20046179 -247.24680928 414.32022469 -242 424.25 C-241.61585938 424.98105957 -241.23171875 425.71211914 -240.8359375 426.46533203 C-235.27127148 436.98210205 -229.18479043 446.76803168 -222 456.25 C-221.11054687 457.44109375 -221.11054687 457.44109375 -220.203125 458.65625 C-218.50610222 460.8866228 -216.76250435 463.07103893 -215 465.25 C-214.30648437 466.12914062 -213.61296875 467.00828125 -212.8984375 467.9140625 C-206.64837989 475.59270471 -199.80748557 482.63088501 -192.8125 489.625 C-192.33932343 490.09908295 -191.86614685 490.57316589 -191.37863159 491.06161499 C-175.34375539 507.09302097 -157.57176426 520.78853569 -138 532.25 C-137.3395166 532.64461426 -136.6790332 533.03922852 -135.99853516 533.44580078 C-117.30699394 544.56416074 -97.15578788 553.77967641 -76.18994141 559.63525391 C-73.97659502 560.25657009 -71.77569264 560.91217604 -69.57421875 561.57421875 C-45.41852319 568.72005748 -21.29898583 571.41758342 3.8125 571.4375 C4.5459967 571.43858765 5.27949341 571.43967529 6.03521729 571.4407959 C44.84693728 571.43427639 82.45602363 563.86011162 118 548.25 C119.77282489 547.49855307 121.54624446 546.74850728 123.3203125 546 C150.12439476 534.51509577 174.6018174 518.00485812 196 498.25 C197.64512539 496.79086809 199.29096741 495.33254379 200.9375 493.875 C210.08425081 485.61711839 218.40809232 476.95811887 226 467.25 C226.80179688 466.24195313 227.60359375 465.23390625 228.4296875 464.1953125 C248.7089009 438.49323433 263.78117287 409.32666343 274 378.25 C274.33 377.2492041 274.66 376.2484082 275 375.21728516 C286.49153229 339.22978217 289.32576277 299.58822811 284 262.25 C283.87109375 261.32058594 283.7421875 260.39117187 283.609375 259.43359375 C276.73207395 211.10145029 256.78715892 166.10746576 226 128.25 C225.54882812 127.69441406 225.09765625 127.13882813 224.6328125 126.56640625 C217.65918245 118.07090665 210.1187029 110.17009461 202.375 102.375 C201.08758911 101.07369141 201.08758911 101.07369141 199.77416992 99.74609375 C193.82588099 93.82669926 187.57394406 88.46070188 181 83.25 C179.92827905 82.3803394 178.85664157 81.5105759 177.78515625 80.640625 C153.20106901 61.31195956 125.41416475 46.71075527 96 36.25 C94.66143947 35.75786381 93.32289607 35.26568101 91.984375 34.7734375 C82.31795511 31.36299066 72.41044026 29.03597745 62.41748047 26.796875 C60.88740535 26.45074611 59.35990835 26.09283012 57.83642578 25.71875 C-0.00566825 11.84406139 -71.34119553 22.64388708 -123 51.25 Z " fill="#2C659B" transform="translate(764,201.75)"/>
<path d="M0 0 C3.4881143 0.0031503 6.97536921 -0.02035751 10.46337891 -0.0456543 C29.59035851 -0.09990219 48.4282891 1.51407844 67.13916016 5.62817383 C68.1269043 5.84127197 69.11464844 6.05437012 70.13232422 6.27392578 C79.89460349 8.44149068 89.39866268 11.17794427 98.88916016 14.31567383 C99.89833496 14.64100098 100.90750977 14.96632812 101.94726562 15.30151367 C129.82529627 24.3680506 156.5853995 36.85327317 180.88916016 53.31567383 C181.87819336 53.98373047 181.87819336 53.98373047 182.88720703 54.6652832 C186.96600813 57.44762327 190.94997527 60.33960911 194.88916016 63.31567383 C195.46182617 63.74557617 196.03449219 64.17547852 196.62451172 64.6184082 C204.50004183 70.56302322 211.87252914 76.8947066 219.04931641 83.66333008 C221.24164086 85.71090684 223.4487974 87.66284786 225.76416016 89.56567383 C228.85872349 92.16723075 231.40253622 95.11268848 234.01416016 98.19067383 C236.00509518 100.44706686 238.10685031 102.53078926 240.26416016 104.62817383 C245.22713013 109.54084344 249.55767508 114.84619596 253.88916016 120.31567383 C254.77523312 121.41124852 255.66197501 122.50628248 256.54931641 123.60083008 C269.29112224 139.41808861 279.2159737 156.47490285 288.88916016 174.31567383 C289.29408691 175.05398438 289.69901367 175.79229492 290.11621094 176.55297852 C326.25706659 242.89738265 332.39444253 326.19956563 311.88916016 398.31567383 C306.56175107 416.30264816 299.15983686 433.5055078 290.88916016 450.31567383 C290.50405273 451.09974609 290.11894531 451.88381836 289.72216797 452.69165039 C280.70196854 470.83554668 269.59239121 487.55463105 256.88916016 503.31567383 C256.42687012 503.88979004 255.96458008 504.46390625 255.48828125 505.05541992 C244.96533128 518.01413122 233.58311055 530.46283074 220.88916016 541.31567383 C219.85804165 542.23102355 218.82817258 543.14778197 217.79931641 544.06567383 C208.64050218 552.16615994 198.91858372 559.33407689 188.88916016 566.31567383 C188.23802246 566.77216309 187.58688477 567.22865234 186.91601562 567.69897461 C164.16818918 583.57327183 138.84570214 595.67374026 112.88916016 605.31567383 C112.16519043 605.58718262 111.4412207 605.85869141 110.6953125 606.13842773 C65.61216211 622.80653015 13.50569225 627.75150772 -34.11083984 621.31567383 C-35.10728516 621.1814502 -36.10373047 621.04722656 -37.13037109 620.90893555 C-72.40110025 615.99995459 -106.34413893 605.43857645 -138.11083984 589.31567383 C-139.08085938 588.82454102 -140.05087891 588.3334082 -141.05029297 587.82739258 C-154.43755058 580.96630991 -166.92964541 573.13078062 -179.11083984 564.31567383 C-179.70606445 563.88625488 -180.30128906 563.45683594 -180.91455078 563.0144043 C-184.36386556 560.51126278 -187.75216703 557.93887084 -191.11083984 555.31567383 C-192.41988281 554.29666992 -192.41988281 554.29666992 -193.75537109 553.25708008 C-211.96524947 538.72650363 -229.98217992 521.85953998 -244.11083984 503.31567383 C-245.10945853 502.05546343 -246.10957995 500.79644302 -247.11083984 499.53833008 C-265.10633017 476.72934189 -279.47118317 451.33591669 -290.11083984 424.31567383 C-290.46130371 423.42912109 -290.81176758 422.54256836 -291.17285156 421.62915039 C-296.27657095 408.56042863 -300.22990235 395.35317885 -303.52050781 381.71850586 C-304.02414192 379.6685609 -304.57800064 377.6310637 -305.14208984 375.59692383 C-306.71844251 369.22922569 -307.45275725 362.69425499 -308.23583984 356.19067383 C-308.3252182 355.45078217 -308.41459656 354.7108905 -308.50668335 353.94857788 C-310.13225011 340.01090612 -310.46959067 326.15125285 -310.42333984 312.12817383 C-310.42070129 311.15757019 -310.41806274 310.18696655 -310.41534424 309.18695068 C-310.34176744 292.87880879 -309.91751389 276.83083992 -306.92333984 260.75317383 C-306.70339355 259.55499023 -306.48344727 258.35680664 -306.25683594 257.12231445 C-302.7720011 238.68956508 -297.83576475 220.82733896 -291.11083984 203.31567383 C-290.76069824 202.40269531 -290.41055664 201.4897168 -290.04980469 200.54907227 C-285.30922465 188.36019586 -279.91387385 176.55980578 -273.92333984 164.94067383 C-273.35349365 163.83006592 -272.78364746 162.71945801 -272.1965332 161.57519531 C-268.62249246 154.76919396 -264.6404564 148.51878114 -260.11083984 142.31567383 C-259.09823722 140.87019437 -258.08898442 139.42236105 -257.08349609 137.97192383 C-251.66055291 130.21205707 -246.1715736 122.59565676 -240.11083984 115.31567383 C-239.05896484 113.98729492 -239.05896484 113.98729492 -237.98583984 112.63208008 C-231.65352669 104.82831595 -224.69334475 97.68256189 -217.61083984 90.56567383 C-217.12646454 90.07612213 -216.64208923 89.58657043 -216.14303589 89.08218384 C-209.48310915 82.36625941 -202.54549517 76.1762119 -195.11083984 70.31567383 C-194.34900391 69.7051416 -193.58716797 69.09460938 -192.80224609 68.46557617 C-178.65160576 57.15078005 -164.1687512 47.08991654 -148.22949219 38.4675293 C-146.06184477 37.2890365 -143.90890843 36.08613145 -141.75537109 34.88208008 C-113.51089724 19.31531568 -82.90864595 10.32902506 -51.42333984 4.12817383 C-50.26922607 3.89590088 -50.26922607 3.89590088 -49.09179688 3.65893555 C-32.76463768 0.56455334 -16.5815461 -0.03118134 0 0 Z M-43.11083984 19.31567383 C-44.07376953 19.48728027 -45.03669922 19.65888672 -46.02880859 19.83569336 C-95.25959429 28.83720467 -140.46095172 48.81728032 -180.11083984 79.31567383 C-181.08537109 80.0555957 -182.05990234 80.79551758 -183.06396484 81.55786133 C-190.12918868 87.05050309 -196.65263058 93.13293321 -203.11083984 99.31567383 C-204.21322998 100.36706543 -204.21322998 100.36706543 -205.33789062 101.43969727 C-215.74459798 111.42413452 -225.23790204 121.58114451 -233.65527344 133.30004883 C-235.10209328 135.30356184 -236.5791239 137.28067009 -238.06787109 139.25317383 C-246.01673286 149.82611444 -252.82318337 160.91794499 -259.29833984 172.44067383 C-259.7025415 173.15650635 -260.10674316 173.87233887 -260.52319336 174.60986328 C-263.71817753 180.3702491 -266.46498461 186.28560865 -269.11083984 192.31567383 C-269.76040649 193.79342285 -269.76040649 193.79342285 -270.4230957 195.30102539 C-277.51488046 211.65372475 -282.99957448 227.97728318 -287.11083984 245.31567383 C-287.37300293 246.40630127 -287.63516602 247.49692871 -287.90527344 248.62060547 C-289.42664005 255.05473799 -290.74994763 261.46603624 -291.73583984 268.00317383 C-291.85701172 268.76694336 -291.97818359 269.53071289 -292.10302734 270.31762695 C-293.50328025 279.36600034 -294.26803169 288.31948752 -294.31396484 297.47583008 C-294.32093384 298.41552139 -294.32790283 299.35521271 -294.33508301 300.32337952 C-294.3523875 303.34169034 -294.35880345 306.35981545 -294.36083984 309.37817383 C-294.36184692 310.40867859 -294.362854 311.43918335 -294.3638916 312.50091553 C-294.35364869 327.98246763 -293.84962262 343.04102488 -291.11083984 358.31567383 C-290.96098633 359.18643555 -290.81113281 360.05719727 -290.65673828 360.9543457 C-289.63656566 366.78080928 -288.43887837 372.55205846 -287.11083984 378.31567383 C-286.93858887 379.07444824 -286.76633789 379.83322266 -286.58886719 380.61499023 C-277.50552281 419.8251795 -259.47405922 458.02175142 -234.11083984 489.31567383 C-233.38509766 490.23348633 -232.65935547 491.15129883 -231.91162109 492.09692383 C-223.11887212 503.08391357 -213.37940102 513.13968716 -203.48583984 523.12817383 C-202.71062988 523.91643555 -201.93541992 524.70469727 -201.13671875 525.5168457 C-195.76905031 530.89243941 -190.12519759 535.68135935 -184.11083984 540.31567383 C-183.33820801 540.92193604 -182.56557617 541.52819824 -181.76953125 542.15283203 C-170.47419769 550.98231658 -158.87915204 558.83544483 -146.44018555 565.96044922 C-144.03373062 567.36053635 -141.67082929 568.82134285 -139.30224609 570.28442383 C-133.61943591 573.70082279 -127.6994803 576.49929002 -121.67333984 579.25317383 C-120.53678955 579.77459961 -119.40023926 580.29602539 -118.22924805 580.83325195 C-108.68242532 585.15897758 -99.04160501 588.97394774 -89.11083984 592.31567383 C-88.06283203 592.67790039 -87.01482422 593.04012695 -85.93505859 593.41333008 C-71.46648249 598.14675829 -56.30579608 601.60421494 -41.29833984 604.12817383 C-40.63745361 604.2397583 -39.97656738 604.35134277 -39.2956543 604.46630859 C-29.43789069 606.01177934 -19.52168937 606.47237938 -9.55615234 606.48364258 C-8.49331024 606.48697098 -7.43046814 606.49029938 -6.3354187 606.49372864 C-4.09845405 606.49875555 -1.86148201 606.50113829 0.37548828 606.50097656 C3.72132424 606.50314605 7.0668205 606.52130112 10.41259766 606.5402832 C30.59919584 606.59660835 50.08182669 605.28205459 69.76416016 600.69067383 C70.91422546 600.42839996 70.91422546 600.42839996 72.08752441 600.16082764 C85.65955282 597.05659828 98.87733216 593.30635764 111.88916016 588.31567383 C112.87770996 587.93685059 113.86625977 587.55802734 114.88476562 587.16772461 C141.35430516 576.86768539 166.12152276 563.29664952 188.88916016 546.31567383 C189.43378906 545.91525879 189.97841797 545.51484375 190.53955078 545.10229492 C209.80683092 530.91467435 228.58456046 513.48885658 242.88916016 494.31567383 C243.4025293 493.63569336 243.91589844 492.95571289 244.44482422 492.25512695 C248.10234981 487.40452682 251.70123896 482.51514088 255.25244141 477.58618164 C256.24695595 476.20655973 257.24579673 474.83002474 258.25244141 473.45922852 C271.35227195 455.54573008 281.71188744 434.25847566 288.88916016 413.31567383 C289.47890625 411.61411133 289.47890625 411.61411133 290.08056641 409.87817383 C291.04465551 407.03215434 291.97148823 404.17690564 292.88916016 401.31567383 C293.38811869 399.85698384 293.88807 398.39863294 294.38916016 396.94067383 C294.89510877 395.40094914 295.39457256 393.85908538 295.88916016 392.31567383 C296.19724609 391.36047852 296.50533203 390.4052832 296.82275391 389.42114258 C299.03595905 382.16148523 300.6469932 374.9010568 302.01416016 367.44067383 C302.17263428 366.58062744 302.3311084 365.72058105 302.49438477 364.83447266 C302.99456762 361.99957801 303.44752516 359.16027598 303.88916016 356.31567383 C304.0708374 355.21263916 304.25251465 354.10960449 304.43969727 352.97314453 C306.16277362 341.24530715 306.22735718 329.56605416 306.20483398 317.72802734 C306.20168795 314.28360893 306.22516426 310.84006406 306.25048828 307.39575195 C306.29272077 292.80902736 305.25666761 278.70898697 302.88916016 264.31567383 C302.77800873 263.63040619 302.6668573 262.94513855 302.55233765 262.23910522 C298.22397047 236.14950771 289.5433252 211.01215263 277.88916016 187.31567383 C277.49180664 186.49260742 277.09445312 185.66954102 276.68505859 184.8215332 C265.38242335 161.57598754 250.70354715 139.79188021 233.15478516 120.79223633 C231.27769855 118.74038648 229.45541379 116.65906429 227.63916016 114.55395508 C218.03480731 103.55335212 207.49681169 93.18026219 195.88916016 84.31567383 C194.56945383 83.28010174 193.25050367 82.24356559 191.93212891 81.20629883 C183.21907936 74.3941522 174.38249204 68.00051254 164.88916016 62.31567383 C163.7611499 61.63770752 163.7611499 61.63770752 162.61035156 60.94604492 C138.44701467 46.53274199 113.14334878 34.54886835 85.88916016 27.31567383 C84.52741088 26.91697403 83.16678578 26.51442061 81.80712891 26.10864258 C42.51728364 14.50118128 -2.72238269 11.97557302 -43.11083984 19.31567383 Z " fill="#F9F4F9" transform="translate(764.11083984375,185.684326171875)"/>
<path d="M0 0 C4.70588235 0.70588235 4.70588235 0.70588235 6 2 C6.27197266 4.38037109 6.27197266 4.38037109 6 7 C4.61474609 8.57666016 4.61474609 8.57666016 2.6484375 9.9140625 C1.91334961 10.41969727 1.17826172 10.92533203 0.42089844 11.44628906 C-3.80532134 14.15863907 -8.0646517 16.79820601 -12.375 19.375 C-14.42615086 20.61266891 -16.47691749 21.85097477 -18.52734375 23.08984375 C-19.58937012 23.73034668 -20.65139648 24.37084961 -21.74560547 25.03076172 C-27.15918887 28.30652794 -32.54921818 31.6203289 -37.9375 34.9375 C-39.02095703 35.60410645 -40.10441406 36.27071289 -41.22070312 36.95751953 C-48.6270268 41.52093401 -56.00563598 46.12720437 -63.375 50.75 C-73.14381382 56.87669306 -83.00357584 62.83708122 -92.90478516 68.74658203 C-99.63985654 72.77569605 -106.3049624 76.90664688 -112.91015625 81.14453125 C-123.15422396 87.71386588 -133.46333958 94.10595577 -143.9675293 100.25146484 C-150.57343102 104.12706807 -157.06848017 108.14810927 -163.52709961 112.26342773 C-177.15917601 120.93993181 -190.93332517 129.41186518 -204.8125 137.6875 C-210.99649238 141.37644805 -217.12758173 145.14728367 -223.25 148.9375 C-224.62828979 149.79057739 -224.62828979 149.79057739 -226.03442383 150.66088867 C-229.38368638 152.73821582 -232.72046566 154.81364378 -236 157 C-238.96076291 156.64111965 -239.84658021 156.15341979 -242 154 C-241.90209961 151.57543945 -241.90209961 151.57543945 -241 149 C-239.09594727 147.30932617 -239.09594727 147.30932617 -236.56640625 145.79296875 C-235.62079834 145.21474365 -234.67519043 144.63651855 -233.70092773 144.04077148 C-232.66524658 143.42919189 -231.62956543 142.8176123 -230.5625 142.1875 C-229.49008057 141.536604 -228.41766113 140.88570801 -227.31274414 140.21508789 C-225.03516267 138.83314928 -222.75505925 137.45682704 -220.46972656 136.08789062 C-216.01476335 133.41460105 -211.59984474 130.67708503 -207.18164062 127.94360352 C-196.88724245 121.57777948 -186.54576109 115.29008315 -176.19775391 109.01196289 C-169.41153277 104.88463254 -162.69144734 100.66139358 -155.99047852 96.39746094 C-149.55562511 92.31705395 -143.03031193 88.40019644 -136.48413086 84.50170898 C-129.91878012 80.5801408 -123.44622862 76.52577828 -116.99291992 72.4230957 C-111.07083967 68.66239433 -105.10052253 64.98897194 -99.10522461 61.34643555 C-92.84739077 57.53652896 -86.6413642 53.64701036 -80.4375 49.75 C-71.15299955 43.92340027 -61.78647373 38.24930986 -52.37255859 32.63476562 C-44.04035075 27.65339882 -35.79728528 22.53945771 -27.57788086 17.37451172 C-20.51003619 12.93429644 -13.4071803 8.55642556 -6.26586914 4.23535156 C-2.95070492 2.36134031 -2.95070492 2.36134031 0 0 Z " fill="#E76F28" transform="translate(756,340)"/>
<path d="M0 0 C5.12552425 0.15243195 9.18588602 3.34131849 13.375 6 C14.99703966 7.01098834 16.61944065 8.02139718 18.2421875 9.03125 C19.0475293 9.53527344 19.85287109 10.03929687 20.68261719 10.55859375 C23.93137344 12.57931192 27.21271494 14.54282511 30.5 16.5 C35.91679338 19.73703224 41.3072265 23.01515762 46.6875 26.3125 C52.93620045 30.14189681 59.20850158 33.92887696 65.5 37.6875 C73.3342965 42.36941196 81.11114921 47.13980037 88.875 51.9375 C97.74311341 57.41543449 106.66440649 62.78506747 115.65600586 68.05737305 C124.11449318 73.03272818 132.46527303 78.17871771 140.8137207 83.33544922 C146.41948136 86.79759651 152.02918299 90.24935447 157.6875 93.625 C164.69256037 97.8040873 171.65930417 102.04491007 178.62451172 106.29003906 C184.00923776 109.57147876 189.39637165 112.84885248 194.7890625 116.1171875 C209.72669467 125.17173337 224.62755377 134.28289809 239.48999023 143.46044922 C241.98373685 144.99002476 244.48888705 146.4991373 247 148 C246.25 152.75 246.25 152.75 244 155 C240.31528591 154.65117631 237.65092338 153.4400958 234.5078125 151.55078125 C233.6504248 151.03999023 232.79303711 150.52919922 231.90966797 150.00292969 C230.99072754 149.44508789 230.07178711 148.88724609 229.125 148.3125 C228.15320801 147.73016602 227.18141602 147.14783203 226.18017578 146.54785156 C223.11483298 144.70716861 220.05656746 142.85521293 217 141 C216.06736328 140.43522949 215.13472656 139.87045898 214.17382812 139.28857422 C208.47684057 135.83662026 202.79036419 132.36763843 197.10595703 128.89501953 C192.10198068 125.84197249 187.09077291 122.8008424 182.07949829 119.75979614 C180.30835891 118.68498699 178.53734039 117.60997896 176.76635742 116.53491211 C173.17766863 114.35644823 169.58884633 112.17820434 166 110 C161.81913513 107.46247758 157.63833657 104.92484602 153.45767212 102.38699341 C151.69280987 101.31572309 149.92782814 100.24464983 148.1628418 99.17358398 C142.73866594 95.88138388 137.3170058 92.58517467 131.90234375 89.27734375 C122.70246452 83.65904401 113.48259786 78.08457109 104.1875 72.625 C94.89764276 67.16733468 85.71498038 61.54627431 76.54956055 55.88256836 C69.89308424 51.77181352 63.21550804 47.70107826 56.5 43.6875 C47.29584682 38.18538629 38.13425426 32.6173619 29 27 C27.67307129 26.18450684 27.67307129 26.18450684 26.31933594 25.35253906 C23.52397588 23.63314365 20.73043483 21.91083165 17.9375 20.1875 C17.08099854 19.660354 16.22449707 19.13320801 15.34204102 18.59008789 C0.27257078 9.27257078 0.27257078 9.27257078 -2 7 C-2.1875 4.5625 -2.1875 4.5625 -2 2 C-1.34 1.34 -0.68 0.68 0 0 Z " fill="#C25336" transform="translate(777,340)"/>
<path d="M0 0 C4.99704975 0.2551223 8.6744063 2.23907214 12.84765625 4.796875 C13.49256516 5.18195724 14.13747406 5.56703949 14.80192566 5.96379089 C16.8944805 7.21664644 18.97848738 8.48299541 21.0625 9.75 C22.51293118 10.62251671 23.96378073 11.4943383 25.41503906 12.36547852 C35.06381405 18.16927882 44.65208752 24.07047212 54.20703125 30.02734375 C64.96848613 36.72448057 75.88485447 43.17015959 86.80664062 49.60131836 C100.38449715 57.59763216 113.85311262 65.76857704 127.30822754 73.96893311 C131.97573028 76.81358726 136.64413517 79.65676095 141.3125 82.5 C142.25883301 83.0765332 143.20516602 83.65306641 144.18017578 84.24707031 C149.37981853 87.41271079 154.58823557 90.56267337 159.8125 93.6875 C170.33537258 99.98366624 180.78538776 106.39906566 191.22265625 112.8359375 C193.44007699 114.20316908 195.65752538 115.57035582 197.875 116.9375 C198.98286865 117.62078369 200.0907373 118.30406738 201.23217773 119.00805664 C208.08200046 123.22561115 214.96308517 127.38516344 221.875 131.5 C240.76168311 142.76168311 240.76168311 142.76168311 245 147 C244.44444444 151.55555556 244.44444444 151.55555556 243 153 C239.07307322 153.37452629 237.13048257 152.79396311 233.984375 150.47265625 C228.27133325 146.4449854 222.27859704 142.96895863 216.25 139.4375 C207.12612795 134.06811627 198.06339973 128.61422058 189.07861328 123.0144043 C181.62582015 118.37370335 174.13138112 113.80326582 166.625 109.25 C166.01589783 108.88048218 165.40679565 108.51096436 164.77923584 108.13024902 C158.25806241 104.17531543 151.73245573 100.22797949 145.1875 96.3125 C139.21178785 92.73664479 133.25985134 89.1228159 127.3125 85.5 C126.35182617 84.91500732 125.39115234 84.33001465 124.40136719 83.72729492 C120.08484365 81.09842681 115.768599 78.46910627 111.45410156 75.83691406 C108.38484949 73.96453334 105.31437746 72.09416564 102.24325562 70.22485352 C101.06462427 69.5069702 99.88640276 68.78841345 98.70864868 68.0690918 C91.80289164 63.85178228 84.8475782 59.74588562 77.81082153 55.75283813 C73.73695075 53.43621869 69.75852221 51.02696285 65.8125 48.5 C58.56905338 43.90944615 51.1999482 39.54134271 43.8125 35.1875 C32.83209858 28.71244618 21.94465609 22.10386206 11.14697266 15.32763672 C9.20199065 14.1249062 7.24082409 12.96180465 5.26171875 11.81640625 C4.24722656 11.21699219 3.23273437 10.61757813 2.1875 10 C1.35605469 9.525625 0.52460937 9.05125 -0.33203125 8.5625 C-2 7 -2 7 -2.38671875 4.4375 C-2 2 -2 2 0 0 Z " fill="#CF6534" transform="translate(517,501)"/>
<path d="M0 0 C0.6875 2.3125 0.6875 2.3125 1 5 C-1.31417876 7.97407933 -4.52374207 9.66869321 -7.71484375 11.58984375 C-8.27799286 11.93048355 -8.84114197 12.27112335 -9.4213562 12.62208557 C-11.25759568 13.73138793 -13.09747483 14.83449055 -14.9375 15.9375 C-16.21140097 16.70536541 -17.48508107 17.47359737 -18.75854492 18.2421875 C-21.92273485 20.15045459 -25.08993199 22.05365741 -28.25842285 23.95477295 C-30.76455676 25.45885731 -33.26889989 26.96591571 -35.7734375 28.47265625 C-41.12629242 31.69014731 -46.48456065 34.89855054 -51.84521484 38.10302734 C-66.84083529 47.06821471 -81.75701963 56.16525035 -96.68603516 65.24072266 C-100.29039395 67.43180266 -103.89502693 69.6224308 -107.5 71.8125 C-108.08921234 72.17045654 -108.67842468 72.52841309 -109.28549194 72.8972168 C-117.29583158 77.76254205 -125.32162031 82.60118472 -133.36328125 87.41455078 C-143.44376831 93.45429333 -153.48050819 99.56635453 -163.52201843 105.670578 C-168.3445593 108.60213801 -173.16870603 111.531045 -177.99336243 114.4591217 C-183.23156398 117.63820254 -188.46895816 120.81861086 -193.70605469 123.99951172 C-195.8445661 125.29827858 -197.98322915 126.5967958 -200.12207031 127.89501953 C-202.10555233 129.09906967 -204.0887147 130.30364657 -206.0715332 131.50878906 C-207.95707279 132.65434391 -209.8436029 133.79827025 -211.73120117 134.94042969 C-216.49925772 137.83343628 -221.22836382 140.77420417 -225.91796875 143.79296875 C-226.87646729 144.40430664 -227.83496582 145.01564453 -228.82250977 145.64550781 C-230.64484251 146.81075935 -232.45964118 147.98790785 -234.26538086 149.17871094 C-235.0775708 149.69594727 -235.88976074 150.21318359 -236.7265625 150.74609375 C-237.43377441 151.20685303 -238.14098633 151.6676123 -238.86962891 152.14233398 C-241.62090034 153.24996824 -243.20396343 152.85677317 -246 152 C-247 151 -247 151 -247.453125 148.72265625 C-247 146 -247 146 -244.421875 143.74609375 C-243.21006695 142.95756753 -241.98482753 142.18946631 -240.75 141.4375 C-240.08613281 141.01476807 -239.42226563 140.59203613 -238.73828125 140.15649414 C-236.50602419 138.74725388 -234.25619292 137.37056699 -232 136 C-231.19755859 135.51015625 -230.39511719 135.0203125 -229.56835938 134.515625 C-223.73784276 130.96701253 -217.87245433 127.47861102 -212 124 C-209.51861894 122.52451923 -207.03958003 121.04518929 -204.5625 119.5625 C-203.973479 119.21018311 -203.38445801 118.85786621 -202.77758789 118.49487305 C-197.46240537 115.30293066 -192.20138701 112.02560826 -186.9375 108.75 C-178.82044989 103.70233601 -170.63002815 98.79578326 -162.38818359 93.95507812 C-153.61966998 88.79731149 -144.93595678 83.50470494 -136.25390625 78.203125 C-132.01461297 75.61500436 -127.76369466 73.0476714 -123.5 70.5 C-117.41898175 66.86361221 -111.36339329 63.18627666 -105.3125 59.5 C-104.34787842 58.91234863 -103.38325684 58.32469727 -102.3894043 57.71923828 C-101.39465088 57.11321777 -100.39989746 56.50719727 -99.375 55.8828125 C-79.62749906 43.8526547 -59.86361173 31.85083623 -39.99609375 20.01953125 C-38.30987031 19.01306359 -36.62367233 18.00655329 -34.9375 17 C-34.11942871 16.51402344 -33.30135742 16.02804687 -32.45849609 15.52734375 C-28.15310957 12.95381364 -23.91432063 10.31029566 -19.73046875 7.54296875 C-18.44571655 6.70088867 -18.44571655 6.70088867 -17.13500977 5.84179688 C-15.50193576 4.7654707 -13.87808348 3.67497539 -12.26538086 2.56835938 C-7.85135664 -0.33205 -5.34439141 -1.78994696 0 0 Z " fill="#204275" transform="translate(1022,501)"/>
<path d="M0 0 C3.62311498 0 4.93094443 0.93795674 7.63745117 3.36962891 C11.17318692 7.80825459 10.62658938 12.6481409 10.48828125 18.0859375 C10.48324585 19.02348877 10.47821045 19.96104004 10.47302246 20.92700195 C10.44697544 24.40998159 10.37716835 27.89252335 10.3125 31.375 C10.209375 39.17125 10.10625 46.9675 10 55 C30.79 55 51.58 55 73 55 C73 58.63 73 62.26 73 66 C72 67 72 67 69.52598572 67.12025452 C68.42678299 67.11803391 67.32758026 67.11581329 66.19506836 67.11352539 C64.95385727 67.11344986 63.71264618 67.11337433 62.43382263 67.11329651 C61.0691626 67.10818911 59.70450298 67.1029731 58.33984375 67.09765625 C56.95121817 67.095792 55.56259193 67.09436813 54.17396545 67.09336853 C50.51278885 67.08954387 46.8516517 67.07971403 43.19049072 67.06866455 C39.45707737 67.05844932 35.72365766 67.05387067 31.99023438 67.04882812 C24.66013823 67.03809171 17.33007464 67.02101591 10 67 C10.00222061 67.87252411 10.00444122 68.74504822 10.00672913 69.64401245 C10.0267419 77.85499665 10.04197919 86.06597268 10.05181217 94.27697563 C10.05703728 98.49862582 10.06412822 102.72025591 10.07543945 106.94189453 C10.0862815 111.01376672 10.09227964 115.08561953 10.09487724 119.15750504 C10.09672911 120.71328156 10.10034518 122.26905698 10.10573006 123.82482529 C10.11295795 125.99896307 10.1139902 128.17302016 10.11352539 130.34716797 C10.115746 131.58626923 10.11796661 132.82537048 10.12025452 134.10202026 C10 137 10 137 9 139 C7.52093108 139.02689216 6.04172517 139.04634621 4.5625 139.0625 C3.73878906 139.07410156 2.91507813 139.08570313 2.06640625 139.09765625 C0 139 0 139 -1 138 C-1.11287813 136.24606924 -1.15576136 134.48760501 -1.17167664 132.7301178 C-1.18435577 131.5873085 -1.19703491 130.44449921 -1.21009827 129.26705933 C-1.21899582 128.00209625 -1.22789337 126.73713318 -1.23706055 125.43383789 C-1.249906 124.09704709 -1.26316016 122.76026016 -1.27679443 121.42347717 C-1.31248382 117.78305393 -1.34167392 114.14260588 -1.36918616 110.50211263 C-1.38666114 108.23014675 -1.40554106 105.95819712 -1.42493629 103.68624687 C-1.49253317 95.76718306 -1.55494936 87.84809777 -1.61254883 79.92895508 C-1.66645549 72.53587095 -1.73155083 65.14294259 -1.80188721 57.74999815 C-1.86170115 51.41204421 -1.91378811 45.07405756 -1.95981437 38.73598856 C-1.98746341 34.94644481 -2.01827839 31.15699025 -2.05682945 27.36754036 C-2.09280551 23.80455699 -2.1191972 20.24163186 -2.1381073 16.6785183 C-2.15081965 14.74177923 -2.17353141 12.80511397 -2.19648743 10.86846924 C-2.20070709 9.72284012 -2.20492676 8.577211 -2.20927429 7.39686584 C-2.22115296 5.8972133 -2.22115296 5.8972133 -2.2332716 4.36726475 C-2 2 -2 2 0 0 Z " fill="#3D3F43" transform="translate(703,433)"/>
<path d="M0 0 C4.20580528 0.45223713 7.16727929 2.05129137 10.76171875 4.2109375 C11.87087646 4.87279053 12.98003418 5.53464355 14.12280273 6.21655273 C15.31116493 6.9358208 16.49939435 7.65530825 17.6875 8.375 C18.91901842 9.11391923 20.15087364 9.85227742 21.38305664 10.59008789 C24.92836712 12.71636286 28.46514837 14.85638142 32 17 C32.84884766 17.51449707 33.69769531 18.02899414 34.57226562 18.55908203 C38.10936505 20.70727214 41.63885465 22.86751656 45.1640625 25.03515625 C48.9630177 27.369267 52.77262864 29.68553309 56.5859375 31.99609375 C57.46365311 32.52793022 57.46365311 32.52793022 58.35910034 33.07051086 C59.56664841 33.80216798 60.77419848 34.53382179 61.98175049 35.26547241 C72.88282406 41.87207904 83.76868287 48.50191117 94.578125 55.2578125 C97.27414163 56.9413864 99.9835547 58.58734519 102.734375 60.1796875 C103.75015625 60.78039062 104.7659375 61.38109375 105.8125 62 C106.64394531 62.474375 107.47539063 62.94875 108.33203125 63.4375 C110 65 110 65 110.515625 67.484375 C110 70 110 70 108.33984375 71.703125 C107.15068359 72.46882813 107.15068359 72.46882813 105.9375 73.25 C104.56271484 74.14525391 104.56271484 74.14525391 103.16015625 75.05859375 C98.43682739 77.96031741 93.69569924 80.82784998 88.92578125 83.65234375 C85.2625744 85.8291357 81.66105122 88.09353699 78.0625 90.375 C69.91205448 95.52110336 61.60867188 100.40674491 53.3125 105.3125 C43.93071017 110.86089798 34.57061177 116.43388097 25.3125 122.1875 C24.48016846 122.70376953 23.64783691 123.22003906 22.7902832 123.75195312 C19.17956937 125.99793267 15.58322006 128.2624625 12.01171875 130.5703125 C11.40996826 130.95421143 10.80821777 131.33811035 10.18823242 131.73364258 C8.65107058 132.71595902 7.12194797 133.71082693 5.59375 134.70703125 C2.75782337 136.12072359 1.12302345 136.44385436 -2 136 C-2.66 135.34 -3.32 134.68 -4 134 C-3.91088867 131.58203125 -3.91088867 131.58203125 -3 129 C-1.0324707 127.26171875 -1.0324707 127.26171875 1.57421875 125.6875 C2.54004883 125.09404785 3.50587891 124.5005957 4.50097656 123.88916016 C5.5525293 123.2657373 6.60408203 122.64231445 7.6875 122 C8.77385742 121.33919434 9.86021484 120.67838867 10.97949219 119.99755859 C14.30887184 117.97970876 17.65158199 115.98606901 21 114 C21.93730957 113.4421582 22.87461914 112.88431641 23.84033203 112.30957031 C27.35878344 110.21849433 30.88136517 108.13473828 34.41137695 106.06323242 C42.10709647 101.54711979 49.74908122 96.94510423 57.375 92.3125 C57.9761261 91.94734283 58.5772522 91.58218567 59.19659424 91.20596313 C66.82895241 86.56639006 74.43716251 81.89057248 81.99755859 77.13452148 C86.95539281 74.01610565 91.96277846 70.98794225 97 68 C89.66511996 62.62739939 82.00688087 57.91537983 74.17169189 53.32461548 C70.61944039 51.2425552 67.07583363 49.14585981 63.53125 47.05078125 C62.81216461 46.62615097 62.09307922 46.20152069 61.35220337 45.76402283 C50.41986294 39.3021226 39.58175435 32.685562 28.74505615 26.06488037 C26.93481429 24.96022192 25.12312265 23.85797567 23.31103516 22.75634766 C20.26352122 20.90361751 17.21865775 19.04660722 14.17572021 17.18637085 C12.47957628 16.15069211 10.78107627 15.11887507 9.08251953 14.0871582 C8.06399902 13.46284912 7.04547852 12.83854004 5.99609375 12.1953125 C5.10075928 11.64891113 4.2054248 11.10250977 3.28295898 10.53955078 C1.22319937 9.15051815 -0.44881809 7.93792733 -2 6 C-1.57894737 1.57894737 -1.57894737 1.57894737 0 0 Z " fill="#374665" transform="translate(869,429)"/>
<path d="M0 0 C1 1 1 1 1.3581543 3.84936523 C1 7 1 7 -0.96166992 8.85180664 C-1.87537354 9.36606201 -2.78907715 9.88031738 -3.73046875 10.41015625 C-5.26018311 11.29586304 -5.26018311 11.29586304 -6.82080078 12.19946289 C-8.48731689 13.12166626 -8.48731689 13.12166626 -10.1875 14.0625 C-11.91749221 15.05795052 -13.64747059 16.05342934 -15.37567139 17.05198669 C-17.1314331 18.0639564 -18.89198213 19.06722901 -20.65283203 20.0703125 C-25.37820849 22.79455579 -30.00395427 25.66597172 -34.625 28.5625 C-41.74874945 32.99507023 -48.89404701 37.39008731 -56.0625 41.75 C-56.99175293 42.3157373 -57.92100586 42.88147461 -58.87841797 43.46435547 C-63.78706026 46.44966553 -68.70168682 49.42471097 -73.62498474 52.38577271 C-76.20297072 53.93690315 -78.77902117 55.49123259 -81.35494995 57.04577637 C-82.60993456 57.80187544 -83.86588467 58.55637447 -85.12283325 59.3092041 C-86.88114219 60.36239752 -88.63616472 61.42088018 -90.390625 62.48046875 C-91.9070459 63.39155396 -91.9070459 63.39155396 -93.45410156 64.32104492 C-95.61224868 65.7442879 -97.28233635 67.0871473 -99 69 C-97.91332031 69.41572266 -97.91332031 69.41572266 -96.8046875 69.83984375 C-87.44056647 73.71330329 -78.83560312 79.4411136 -70.18505859 84.68017578 C-67.8105465 86.11443415 -65.43121542 87.54043672 -63.05078125 88.96484375 C-54.70616954 93.95816448 -46.38161493 98.97743151 -38.109375 104.08984375 C-32.10448637 107.77877659 -26.04805369 111.38246 -20 115 C-16.41597947 117.1446877 -12.83283177 119.29082714 -9.25 121.4375 C-8.37980225 121.95795898 -7.50960449 122.47841797 -6.61303711 123.01464844 C-5.79714111 123.50352539 -4.98124512 123.99240234 -4.140625 124.49609375 C-3.41391602 124.93107178 -2.68720703 125.3660498 -1.93847656 125.81420898 C-0.26737682 126.83644216 1.37004448 127.91336298 3 129 C3.3125 131.5 3.3125 131.5 3 134 C2.34 134.66 1.68 135.32 1 136 C-3.78322413 135.71671013 -6.9832026 134.10750383 -11.0078125 131.60546875 C-11.56644485 131.26218033 -12.12507721 130.91889191 -12.70063782 130.56520081 C-14.51436291 129.44809184 -16.31951808 128.31787314 -18.125 127.1875 C-19.38876093 126.40618496 -20.65317191 125.62592046 -21.91821289 124.84667969 C-24.44557352 123.28918862 -26.97042734 121.72775501 -29.49365234 120.16357422 C-34.11075702 117.30728403 -38.77182179 114.52601196 -43.4375 111.75 C-51.00812425 107.22826981 -58.50535771 102.5955707 -65.99023438 97.93359375 C-72.41826591 93.94411018 -78.91171692 90.07712148 -85.4375 86.25 C-107.97010581 73.02989419 -107.97010581 73.02989419 -111 70 C-111.36376953 67.64990234 -111.36376953 67.64990234 -111 65 C-108.97607422 63.21337891 -108.97607422 63.21337891 -106.1796875 61.6015625 C-105.17131836 61.00504883 -104.16294922 60.40853516 -103.12402344 59.79394531 C-101.57763184 58.90594238 -101.57763184 58.90594238 -100 58 C-98.20826849 56.90801315 -96.41911837 55.81177738 -94.6328125 54.7109375 C-92.79743177 53.59803959 -90.96147705 52.48608785 -89.125 51.375 C-81.3924904 46.68413765 -73.6826416 41.95959016 -66 37.1875 C-59.53764703 33.17535375 -53.05447633 29.2049204 -46.52270508 25.30688477 C-41.72594828 22.44265307 -36.95376856 19.5396504 -32.1875 16.625 C-31.07012451 15.94449585 -31.07012451 15.94449585 -29.93017578 15.25024414 C-25.94242464 12.81794714 -21.97555032 10.35769214 -18.03125 7.85546875 C-17.22018799 7.34612793 -16.40912598 6.83678711 -15.57348633 6.31201172 C-14.0180706 5.33448554 -12.46810385 4.34821823 -10.92456055 3.35205078 C-4.33420145 -0.76777283 -4.33420145 -0.76777283 0 0 Z " fill="#48627D" transform="translate(668,430)"/>
<path d="M0 0 C3.5625 0.1875 3.5625 0.1875 5.5625 2.1875 C5.81138897 4.57038212 5.81138897 4.57038212 5.80973816 7.62232971 C5.81393265 8.77637299 5.81812714 9.93041626 5.82244873 11.11943054 C5.81401947 13.02786491 5.81401947 13.02786491 5.80541992 14.97485352 C5.80649242 16.32326347 5.80843061 17.67167297 5.81117249 19.02008057 C5.81602874 22.68731302 5.80835584 26.35442419 5.79821944 30.02164197 C5.78945311 33.85288184 5.7911961 37.68411775 5.7915802 41.5153656 C5.79064301 47.94898516 5.78195109 54.38255761 5.76831055 60.81616211 C5.75257777 68.26430019 5.74731264 75.71238667 5.7480461 83.16054016 C5.74865553 90.31422238 5.74355832 97.46788771 5.73525429 104.62156487 C5.73171527 107.67139759 5.72989016 110.72122435 5.72936058 113.77105904 C5.72835921 117.35871915 5.72227958 120.9463356 5.71219444 124.53398132 C5.70785957 126.48634901 5.70844264 128.43872565 5.70913696 130.39109802 C5.70487198 131.54232147 5.70060699 132.69354492 5.69621277 133.87965393 C5.69453692 134.88641961 5.69286108 135.89318529 5.69113445 136.93045902 C5.5625 139.1875 5.5625 139.1875 4.5625 140.1875 C2.75 140.3203125 2.75 140.3203125 0.5625 140.3125 C-0.159375 140.31507813 -0.88125 140.31765625 -1.625 140.3203125 C-3.4375 140.1875 -3.4375 140.1875 -4.4375 139.1875 C-4.5360491 137.40554128 -4.563821 135.61964252 -4.56448364 133.83496094 C-4.56730347 132.67387817 -4.57012329 131.51279541 -4.57302856 130.31652832 C-4.57100433 129.03129272 -4.5689801 127.74605713 -4.56689453 126.421875 C-4.56824856 125.06376091 -4.5700285 123.7056472 -4.57220459 122.34753418 C-4.57677877 118.64928799 -4.57498943 114.95106958 -4.5718255 111.25282288 C-4.56930182 107.39087853 -4.57163946 103.52893663 -4.57321167 99.66699219 C-4.57503334 93.18033418 -4.57262712 86.69368754 -4.56787109 80.20703125 C-4.56242848 72.69700077 -4.56419113 65.18699744 -4.5696975 57.67696762 C-4.5742287 51.2404647 -4.57487915 44.80396997 -4.57225883 38.36746597 C-4.57069609 34.51820684 -4.5705022 30.66896048 -4.57379532 26.81970215 C-4.57667413 23.20169294 -4.57469816 19.58371889 -4.56890106 15.9657135 C-4.56693791 13.99663339 -4.56992729 12.02755033 -4.57302856 10.05847168 C-4.56879883 8.31684753 -4.56879883 8.31684753 -4.56448364 6.54003906 C-4.56410662 5.52460022 -4.56372959 4.50916138 -4.56334114 3.46295166 C-4.35913849 -0.22942795 -3.83302017 0.20907383 0 0 Z " fill="#333439" transform="translate(830.4375,431.8125)"/>
<path d="M0 0 C3.66734492 0.41376357 6.22302578 1.50977872 9.30859375 3.484375 C10.53606323 4.25914185 10.53606323 4.25914185 11.78833008 5.04956055 C13.09966919 5.89127808 13.09966919 5.89127808 14.4375 6.75 C16.32424833 7.94082064 18.21231209 9.12955919 20.1015625 10.31640625 C21.07383789 10.92758301 22.04611328 11.53875977 23.04785156 12.16845703 C27.75533535 15.08902794 32.53196525 17.88867923 37.3125 20.6875 C44.21445296 24.73945551 51.05987147 28.85739008 57.8269043 33.13061523 C63.55128311 36.73991629 69.33593187 40.245634 75.125 43.75 C83.23808633 48.671197 91.30040044 53.66593221 99.3125 58.75 C100.25561035 59.34651367 101.1987207 59.94302734 102.17041016 60.55761719 C103.03843262 61.11094727 103.90645508 61.66427734 104.80078125 62.234375 C105.56559814 62.72131836 106.33041504 63.20826172 107.1184082 63.70996094 C109 65 109 65 111 67 C110.44444444 71.55555556 110.44444444 71.55555556 109 73 C105.07307322 73.37452629 103.13048257 72.79396311 99.984375 70.47265625 C94.27133325 66.4449854 88.27859704 62.96895863 82.25 59.4375 C73.12612795 54.06811627 64.06339973 48.61422058 55.07861328 43.0144043 C47.62581626 38.37370092 40.1312453 33.80349468 32.625 29.25 C32.01988586 28.88280853 31.41477173 28.51561707 30.7913208 28.13729858 C24.01918883 24.02892963 17.23840656 19.9355813 10.4375 15.875 C4.55458527 12.35759294 -1.24422729 8.72150793 -7 5 C-6.36964844 4.70480469 -5.73929688 4.40960937 -5.08984375 4.10546875 C-2.92893401 3.12720273 -2.92893401 3.12720273 -1.5625 1.3125 C-1.046875 0.879375 -0.53125 0.44625 0 0 Z " fill="#3C4F71" transform="translate(651,581)"/>
<path d="M0 0 C0.71484055 0.00202423 1.42968109 0.00404846 2.16618347 0.00613403 C2.91574814 0.00438171 3.66531281 0.00262939 4.43759155 0.00082397 C6.92722354 -0.00359463 9.41678508 -0.00065653 11.90641785 0.00271606 C13.62895217 0.00204303 15.35148639 0.001073 17.07402039 -0.00018311 C20.68889772 -0.00166009 24.3037504 0.00049449 27.91862488 0.00515747 C32.56283277 0.01085476 37.20698289 0.00757576 41.85118866 0.00158501 C45.40953511 -0.00202059 48.96786775 -0.00088203 52.5262146 0.0017128 C54.23911547 0.00238207 55.95201757 0.00155363 57.66491699 -0.00076675 C60.05469606 -0.00329326 62.44438026 0.00054727 64.83415222 0.00613403 C65.90641304 0.00309769 65.90641304 0.00309769 67.00033569 0 C71.88590516 0.02126588 71.88590516 0.02126588 73.00016785 1.13552856 C73.09807354 2.63290981 73.12991649 4.13495749 73.12516785 5.63552856 C73.12903503 6.85755981 73.12903503 6.85755981 73.13298035 8.10427856 C73.00016785 10.13552856 73.00016785 10.13552856 72.00016785 11.13552856 C69.60207635 11.23580652 67.23277286 11.27171533 64.83415222 11.2649231 C64.08458755 11.26667542 63.33502289 11.26842773 62.56274414 11.27023315 C60.07311216 11.27465176 57.58355061 11.27171366 55.09391785 11.26834106 C53.37138353 11.2690141 51.6488493 11.26998412 49.92631531 11.27124023 C46.31143797 11.27271722 42.69658529 11.27056263 39.08171082 11.26589966 C34.43750292 11.26020237 29.79335281 11.26348137 25.14914703 11.26947212 C21.59080059 11.27307772 18.03246794 11.27193916 14.47412109 11.26934433 C12.76122023 11.26867506 11.04831813 11.26950349 9.3354187 11.27182388 C6.94563963 11.27435039 4.55595544 11.27050986 2.16618347 11.2649231 C1.45134293 11.26694733 0.73650238 11.26897156 0 11.27105713 C-4.88556947 11.24979125 -4.88556947 11.24979125 -5.99983215 10.13552856 C-6.09773785 8.63814732 -6.1295808 7.13609964 -6.12483215 5.63552856 C-6.12741028 4.82084106 -6.1299884 4.00615356 -6.13264465 3.16677856 C-5.86934732 -0.86012182 -3.46710899 0.01509161 0 0 Z " fill="#34363A" transform="translate(723.9998321533203,433.8644714355469)"/>
<path d="M0 0 C4.46455149 1.6055214 8.44043458 3.89267688 12.5 6.3125 C13.22179443 6.73966309 13.94358887 7.16682617 14.68725586 7.60693359 C24.20667816 13.27006882 33.60349354 19.13600436 43 25 C42.25 29.75 42.25 29.75 40 32 C36.26200295 31.65183406 33.55925479 30.38860384 30.3671875 28.48046875 C29.48691895 27.95799561 28.60665039 27.43552246 27.69970703 26.8972168 C26.30147705 26.05090698 26.30147705 26.05090698 24.875 25.1875 C23.91319824 24.61233643 22.95139648 24.03717285 21.96044922 23.44458008 C12.54270304 17.78543399 3.24650581 11.93401064 -6 6 C-4 4 -2 2 0 0 Z " fill="#854446" transform="translate(981,463)"/>
<path d="M0 0 C0.66 0.33 1.32 0.66 2 1 C1.72285156 1.92941406 1.44570312 2.85882812 1.16015625 3.81640625 C0.79792969 5.05261719 0.43570312 6.28882813 0.0625 7.5625 C-0.29714844 8.78066406 -0.65679688 9.99882813 -1.02734375 11.25390625 C-2.06599424 14.95857461 -2.06599424 14.95857461 -2.51171875 18.66796875 C-2.95841429 21.71621914 -3.6329941 23.95789371 -4.875 26.75 C-6.392331 30.34138057 -7.54704016 33.84457689 -8.5 37.625 C-9.5675876 41.73954032 -10.96025242 45.24177257 -12.96484375 48.9765625 C-14.53898951 52.05357194 -15.73652213 55.26485649 -16.99609375 58.48046875 C-19.37709539 64.45613434 -22.06490077 70.27655651 -25 76 C-25.82403833 73.64919349 -26.1198361 72.3765889 -25.35424805 69.97070312 C-24.99371338 69.24818359 -24.63317871 68.52566406 -24.26171875 67.78125 C-23.85848389 66.94585693 -23.45524902 66.11046387 -23.03979492 65.24975586 C-22.5935376 64.34233643 -22.14728027 63.43491699 -21.6875 62.5 C-12.94048956 43.95683671 -6.11395173 24.7680572 -1.83984375 4.70703125 C-1 1 -1 1 0 0 Z " fill="#B5454D" transform="translate(1081,562)"/>
<path d="M0 0 C0.66 0.33 1.32 0.66 2 1 C0.576875 1.86625 0.576875 1.86625 -0.875 2.75 C-3.98195759 4.98700946 -4.51199432 5.72638751 -6 9 C-7.62746694 10.70496537 -9.28891311 12.37897032 -11 14 C-11.66 12.68 -12.32 11.36 -13 10 C-14.97536745 10.34786708 -14.97536745 10.34786708 -17 11 C-17.33 11.66 -17.66 12.32 -18 13 C-20.475 12.01 -20.475 12.01 -23 11 C-18.87336517 8.24891011 -14.44692398 6.35706714 -9.9375 4.3125 C-9.01388672 3.88388672 -8.09027344 3.45527344 -7.13867188 3.01367188 C-5.81512695 2.41329102 -5.81512695 2.41329102 -4.46484375 1.80078125 C-3.656521 1.43122314 -2.84819824 1.06166504 -2.01538086 0.6809082 C-1.35030518 0.4562085 -0.68522949 0.23150879 0 0 Z " fill="#F8EFF3" transform="translate(921,791)"/>
<path d="M0 0 C0.66 0.66 1.32 1.32 2 2 C-2.67881141 8.49529114 -7.4139016 14.94911584 -12.1875 21.375 C-12.68604492 22.05240234 -13.18458984 22.72980469 -13.69824219 23.42773438 C-17.5815152 28.63467453 -21.83923339 33.11935364 -26.8125 37.3125 C-27.41707031 37.82425781 -28.02164063 38.33601562 -28.64453125 38.86328125 C-29.09183594 39.23839844 -29.53914062 39.61351562 -30 40 C-28.56265832 36.7313245 -26.78396294 34.56090636 -24.3125 32 C-19.57536206 26.8462408 -15.37665246 21.35516824 -11.1875 15.75 C-10.54143799 14.88632812 -9.89537598 14.02265625 -9.22973633 13.1328125 C-6.03198331 8.82748813 -2.91875734 4.49944456 0 0 Z " fill="#AF3A41" transform="translate(1037,666)"/>
<path d="M0 0 C0.33 0 0.66 0 1 0 C1.02513051 4.03441396 1.04305855 8.06879625 1.05493164 12.10327148 C1.05989273 13.46949052 1.06666372 14.83570444 1.07543945 16.2019043 C1.13162733 25.18866001 0.84700523 34.05153774 0 43 C-0.33 43 -0.66 43 -1 43 C-1 40.03 -1 37.06 -1 34 C-1.66 34 -2.32 34 -3 34 C-4.24327778 28.15659442 -3.57300962 23.73303505 -2 18 C-1.67 18 -1.34 18 -1 18 C-0.505 9.09 -0.505 9.09 0 0 Z " fill="#DADDEC" transform="translate(1049,484)"/>
<path d="M0 0 C1.32 0.33 2.64 0.66 4 1 C4 1.66 4 2.32 4 3 C17.86 3.495 17.86 3.495 32 4 C32 4.66 32 5.32 32 6 C20.45 6 8.9 6 -3 6 C-3 5.34 -3 4.68 -3 4 C-2.01 4 -1.02 4 0 4 C0 2.68 0 1.36 0 0 Z " fill="#F6DEDE" transform="translate(755,803)"/>
<path d="M0 0 C0.66 0.33 1.32 0.66 2 1 C-2.70737288 6.06239821 -7.52232556 10.28071289 -13.26953125 14.12109375 C-15.30839944 15.52409175 -17.25364978 16.94985982 -19.19921875 18.47265625 C-19.73772461 18.89168213 -20.27623047 19.31070801 -20.83105469 19.74243164 C-22.37003197 20.94718422 -23.90198403 22.16089477 -25.43359375 23.375 C-26.28050781 23.91125 -27.12742187 24.4475 -28 25 C-28.99 24.67 -29.98 24.34 -31 24 C-30.48203857 23.62302979 -29.96407715 23.24605957 -29.43041992 22.85766602 C-14.11160284 12.16753644 -14.11160284 12.16753644 0 0 Z " fill="#B14045" transform="translate(980,730)"/>
<path d="M0 0 C0.66 0.33 1.32 0.66 2 1 C-0.53741915 3.56673522 -3.08069115 6.12759557 -5.625 8.6875 C-6.33785156 9.40873047 -7.05070313 10.12996094 -7.78515625 10.87304688 C-11.70788924 14.81377405 -15.68422878 18.49660924 -20 22 C-20.97591904 22.91917956 -21.94086295 23.85088833 -22.875 24.8125 C-23.57625 25.534375 -24.2775 26.25625 -25 27 C-25.66 26.67 -26.32 26.34 -27 26 C-14.05734527 12.87977836 -14.05734527 12.87977836 -7.72265625 7.5 C-5.00694189 5.13529634 -2.51382421 2.57666982 0 0 Z " fill="#F59C34" transform="translate(549,248)"/>
<path d="M0 0 C-2.46458438 1.23229219 -4.9292517 2.46441129 -7.39453125 3.6953125 C-9.3710414 4.68504922 -11.34288523 5.68411134 -13.3125 6.6875 C-15.84740925 7.92547894 -18.36451393 8.99600531 -21 10 C-21.66644531 10.27199219 -22.33289063 10.54398438 -23.01953125 10.82421875 C-23.73496094 11.10910156 -24.45039062 11.39398437 -25.1875 11.6875 C-25.86167969 11.95949219 -26.53585937 12.23148438 -27.23046875 12.51171875 C-29 13 -29 13 -31 12 C-27.63325708 10.28841561 -24.25702838 8.59713521 -20.87060547 6.92480469 C-19.58700428 6.29020781 -18.3048483 5.6526818 -17.02392578 5.01269531 C-15.02184723 4.01673745 -13.01210625 3.03801421 -11 2.0625 C-10.36570068 1.744021 -9.73140137 1.42554199 -9.07788086 1.09741211 C-3.52519308 -1.55989794 -3.52519308 -1.55989794 0 0 Z " fill="#B54445" transform="translate(920,774)"/>
<path d="M0 0 C0.66 0.66 1.32 1.32 2 2 C1.55011719 2.37769531 1.10023438 2.75539063 0.63671875 3.14453125 C-2.63983011 5.94831154 -5.82973549 8.78950436 -8.83984375 11.87890625 C-9.32219482 12.37350342 -9.8045459 12.86810059 -10.30151367 13.37768555 C-11.70258526 14.82598692 -13.09366748 16.28393133 -14.484375 17.7421875 C-16.82802612 19.84565077 -17.93306317 20.67037595 -21 21 C-16.83246216 15.84541373 -12.3162737 11.47391797 -7.34765625 7.08984375 C-4.79153618 4.81442904 -2.37873001 2.45802102 0 0 Z " fill="#203D75" transform="translate(975,685)"/>
<path d="M0 0 C0.66 0.33 1.32 0.66 2 1 C1.22095672 19.82004556 1.22095672 19.82004556 -1 29 C-1.33 29 -1.66 29 -2 29 C-2.33774664 8.17229076 -2.33774664 8.17229076 0 0 Z " fill="#203C72" transform="translate(1050,510)"/>
<path d="M0 0 C0.33 0.99 0.66 1.98 1 3 C-0.17163086 4.90112305 -0.17163086 4.90112305 -1.96484375 7.01171875 C-2.91713867 8.14770508 -2.91713867 8.14770508 -3.88867188 9.30664062 C-4.56478516 10.09232422 -5.24089844 10.87800781 -5.9375 11.6875 C-6.60974609 12.48478516 -7.28199219 13.28207031 -7.97460938 14.10351562 C-9.64077651 16.07691925 -11.31605346 18.0417683 -13 20 C-13.33 19.01 -13.66 18.02 -14 17 C-12.8125 15.2734375 -12.8125 15.2734375 -11 13.375 C-7.06003251 9.11000501 -3.51615208 4.6169535 0 0 Z " fill="#223E75" transform="translate(997,659)"/>
<path d="M0 0 C0.66 1.32 1.32 2.64 2 4 C0.02 6.97 -1.96 9.94 -4 13 C-4.99 12.34 -5.98 11.68 -7 11 C-7 9.68 -7 8.36 -7 7 C-5.824375 6.6596875 -5.824375 6.6596875 -4.625 6.3125 C-1.78125 5.21875 -1.78125 5.21875 -0.6875 2.375 C-0.460625 1.59125 -0.23375 0.8075 0 0 Z " fill="#F7EDF1" transform="translate(1036,662)"/>
<path d="M0 0 C3.27642756 0.25866533 4.60820723 0.55416685 6.8125 3.0625 C7.204375 3.701875 7.59625 4.34125 8 5 C7 6 7 6 4.93359375 6.09765625 C4.10988281 6.08605469 3.28617188 6.07445312 2.4375 6.0625 C1.61121094 6.05347656 0.78492188 6.04445313 -0.06640625 6.03515625 C-0.70449219 6.02355469 -1.34257813 6.01195312 -2 6 C-1.125 1.125 -1.125 1.125 0 0 Z " fill="#5F504F" transform="translate(703,433)"/>
<path d="M0 0 C1.32 0 2.64 0 4 0 C3.67 1.65 3.34 3.3 3 5 C3.66 5 4.32 5 5 5 C5.66 6.65 6.32 8.3 7 10 C2.75354935 10 0.61475228 8.18249194 -3 6 C-2.505 5.566875 -2.01 5.13375 -1.5 4.6875 C0.33218192 3.00259517 0.33218192 3.00259517 0 0 Z " fill="#F0EFF8" transform="translate(755,636)"/>
<path d="M0 0 C6.93 0.495 6.93 0.495 14 1 C14 1.33 14 1.66 14 2 C12.35 2 10.7 2 9 2 C8.67 2.99 8.34 3.98 8 5 C6.33333333 5 4.66666667 5 3 5 C3 4.34 3 3.68 3 3 C1.35 3.33 -0.3 3.66 -2 4 C-1.34 2.68 -0.68 1.36 0 0 Z " fill="#F9EEF1" transform="translate(719,823)"/>
<path d="M0 0 C1.38044837 4.37398501 0.16876938 6.53473485 -1.75 10.6875 C-4.17372608 16.0494157 -6.25544455 21.37865465 -8 27 C-8.33 27 -8.66 27 -9 27 C-8.51414599 20.33685923 -6.6403029 15.07780549 -3.9375 9 C-3.56044922 8.12988281 -3.18339844 7.25976562 -2.79492188 6.36328125 C-1.87240722 4.23799433 -0.94069645 2.1172862 0 0 Z " fill="#5997CC" transform="translate(493,383)"/>
<path d="M0 0 C0.66 0 1.32 0 2 0 C0.93787671 7.45071559 -1.34124111 13.43657756 -5 20 C-6.10960573 16.67118282 -5.9412896 16.12635748 -4.78515625 12.98828125 C-4.51123047 12.23095703 -4.23730469 11.47363281 -3.95507812 10.69335938 C-3.66052734 9.90767578 -3.36597656 9.12199219 -3.0625 8.3125 C-2.77181641 7.51521484 -2.48113281 6.71792969 -2.18164062 5.89648438 C-1.46260698 3.92798243 -0.73236297 1.96358188 0 0 Z " fill="#294379" transform="translate(1037,580)"/>
<path d="M0 0 C1 2 1 2 0.375 4.5 C-1 7 -1 7 -3.625 8.3125 C-4.40875 8.539375 -5.1925 8.76625 -6 9 C-5.67 7.68 -5.34 6.36 -5 5 C-5.66 4.67 -6.32 4.34 -7 4 C-4.69 2.68 -2.38 1.36 0 0 Z " fill="#EFEEF6" transform="translate(923,567)"/>
<path d="M0 0 C0.33 0 0.66 0 1 0 C0.88485851 2.04224637 0.75742674 4.08380159 0.625 6.125 C0.52058594 7.83042969 0.52058594 7.83042969 0.4140625 9.5703125 C0.00556124 12.95393616 -0.80967569 15.81612441 -2 19 C-2.33 19 -2.66 19 -3 19 C-3.38614349 12.1781317 -2.00865708 6.50422293 0 0 Z " fill="#284475" transform="translate(1046,545)"/>
<path d="M0 0 C-1.72440365 0.98753064 -3.45475026 1.96468806 -5.1875 2.9375 C-6.15042969 3.48277344 -7.11335937 4.02804687 -8.10546875 4.58984375 C-10.80662842 5.90579333 -13.04356101 6.57301887 -16 7 C-16 6.34 -16 5.68 -16 5 C-14.09118566 3.96455826 -12.17260796 2.94709915 -10.25 1.9375 C-8.64898438 1.08478516 -8.64898438 1.08478516 -7.015625 0.21484375 C-3.97406463 -1.01044806 -2.95106435 -1.25348607 0 0 Z " fill="#2E4C82" transform="translate(907,740)"/>
<path d="M0 0 C0.66 0 1.32 0 2 0 C0.65150163 4.35970831 -1.04907846 8.31341438 -3.125 12.375 C-3.66382813 13.43460938 -4.20265625 14.49421875 -4.7578125 15.5859375 C-5.16773438 16.38257813 -5.57765625 17.17921875 -6 18 C-7 15 -7 15 -6.07421875 12.6953125 C-5.61660156 11.84710937 -5.15898438 10.99890625 -4.6875 10.125 C-2.91415967 6.80189233 -1.34402421 3.52096484 0 0 Z " fill="#B3434C" transform="translate(1072,637)"/>
<path d="M0 0 C2.5625 0.25 2.5625 0.25 5 1 C5.33 1.66 5.66 2.32 6 3 C3.98177083 3.45572917 1.96354167 3.91145833 -0.0546875 4.3671875 C-2.20719964 4.90474428 -2.20719964 4.90474428 -4 7 C-4.99 6.01 -5.98 5.02 -7 4 C-5.824375 3.566875 -5.824375 3.566875 -4.625 3.125 C-1.90328368 2.15087746 -1.90328368 2.15087746 0 0 Z " fill="#805452" transform="translate(651,581)"/>
<path d="M0 0 C-0.33 0.99 -0.66 1.98 -1 3 C-1.66 3 -2.32 3 -3 3 C-3 4.65 -3 6.3 -3 8 C-3.99 8 -4.98 8 -6 8 C-6.33 6.35 -6.66 4.7 -7 3 C-2.25 0 -2.25 0 0 0 Z " fill="#F7EBEE" transform="translate(948,777)"/>
<path d="M0 0 C1 2 1 2 0.328125 4.49609375 C-0.02765625 5.46675781 -0.3834375 6.43742188 -0.75 7.4375 C-1.26820312 8.88962891 -1.26820312 8.88962891 -1.796875 10.37109375 C-2.93844347 12.86549498 -3.93085438 14.24598288 -6 16 C-5.52412884 9.97229862 -2.80277043 5.23321711 0 0 Z " fill="#223C72" transform="translate(1030,601)"/>
<path d="M0 0 C-0.598125 0.268125 -1.19625 0.53625 -1.8125 0.8125 C-4.04292693 1.86180044 -4.04292693 1.86180044 -5.4375 3.625 C-7.61538466 5.5415385 -9.18112974 5.14455745 -12 5 C-12.99 5.495 -12.99 5.495 -14 6 C-14.66 5.34 -15.32 4.68 -16 4 C-13.71144298 3.13656269 -11.4198072 2.2840189 -9.125 1.4375 C-8.47402344 1.19064453 -7.82304688 0.94378906 -7.15234375 0.68945312 C-2.2265625 -1.11328125 -2.2265625 -1.11328125 0 0 Z " fill="#F2D3D4" transform="translate(895,804)"/>
<path d="M0 0 C0.66 0.33 1.32 0.66 2 1 C0.576875 1.86625 0.576875 1.86625 -0.875 2.75 C-3.76134098 4.82816551 -4.84095741 5.75468075 -6 9 C-6.33 8.01 -6.66 7.02 -7 6 C-9.01508358 5.26676204 -9.01508358 5.26676204 -11 5 C-9.21289414 4.13633178 -7.4201535 3.28431406 -5.625 2.4375 C-4.62726562 1.96183594 -3.62953125 1.48617187 -2.6015625 0.99609375 C-1.74304688 0.66738281 -0.88453125 0.33867188 0 0 Z " fill="#F6E4E8" transform="translate(921,791)"/>
<path d="M0 0 C0.33 0.99 0.66 1.98 1 3 C0.113125 3.721875 -0.77375 4.44375 -1.6875 5.1875 C-4.63741207 7.63992096 -7.32793794 10.24934788 -10 13 C-10.66 12.67 -11.32 12.34 -12 12 C-8.04 8.04 -4.08 4.08 0 0 Z " fill="#F6A84E" transform="translate(534,262)"/>
<path d="M0 0 C2.62587906 2.62587906 2.85778351 4.77281623 3.6875 8.375 C3.95949219 9.51710938 4.23148438 10.65921875 4.51171875 11.8359375 C4.95830381 14.72980868 4.99155833 16.29816991 4 19 C3.32506659 16.77332235 2.66036956 14.54354023 2 12.3125 C1.62875 11.07113281 1.2575 9.82976562 0.875 8.55078125 C0.12296543 5.4989981 -0.19034899 3.11101638 0 0 Z " fill="#C75055" transform="translate(1076,417)"/>
<path d="M0 0 C-0.33 0.99 -0.66 1.98 -1 3 C-3.625 4.0625 -3.625 4.0625 -7 5 C-8.29177818 5.37461567 -9.58344676 5.74960953 -10.875 6.125 C-12.421875 6.558125 -12.421875 6.558125 -14 7 C-11.725306 4.44736912 -9.56797307 3.15855185 -6.4375 1.8125 C-5.65246094 1.46832031 -4.86742187 1.12414062 -4.05859375 0.76953125 C-2 0 -2 0 0 0 Z " fill="#BD4C4D" transform="translate(903,780)"/>
<path d="M0 0 C0.66 0.66 1.32 1.32 2 2 C-0.63886654 6.2026393 -3.36440339 9.56638098 -7 13 C-5.35821735 8.22390502 -2.73453298 4.20617096 0 0 Z " fill="#AD3A41" transform="translate(1045,653)"/>
<path d="M0 0 C0.66 0 1.32 0 2 0 C2.12375 1.010625 2.2475 2.02125 2.375 3.0625 C2.98085335 6.87937612 3.87193912 10.31500112 5 14 C4.01 14.495 4.01 14.495 3 15 C2.491217 13.44033782 1.99336531 11.87710759 1.5 10.3125 C1.2215625 9.44238281 0.943125 8.57226562 0.65625 7.67578125 C0.00149195 5.00608323 -0.11831495 2.73603316 0 0 Z " fill="#3E75B8" transform="translate(479,568)"/>
<path d="M0 0 C2 3 2 3 1.828125 5.375 C1.63734375 6.24125 1.4465625 7.1075 1.25 8 C1.06953125 8.86625 0.8890625 9.7325 0.703125 10.625 C0 13 0 13 -2 16 C-2.2358396 10.22192976 -1.86783046 5.48675196 0 0 Z " fill="#B93F47" transform="translate(1084,545)"/>
<path d="M0 0 C0 0.66 0 1.32 0 2 C-0.66 2 -1.32 2 -2 2 C-2 2.66 -2 3.32 -2 4 C-2.99 3.67 -3.98 3.34 -5 3 C-5 2.34 -5 1.68 -5 1 C-7.31 1 -9.62 1 -12 1 C-12 0.67 -12 0.34 -12 0 C-3.42857143 -1.28571429 -3.42857143 -1.28571429 0 0 Z " fill="#F4D9DC" transform="translate(826,823)"/>
<path d="M0 0 C0.53625 0.226875 1.0725 0.45375 1.625 0.6875 C-0.76073379 2.57963369 -2.44675348 3.71141783 -5.375 4.6875 C-6.365 4.0275 -7.355 3.3675 -8.375 2.6875 C-2.95961538 -0.38942308 -2.95961538 -0.38942308 0 0 Z " fill="#EEEEF6" transform="translate(893.375,742.3125)"/>
<path d="M0 0 C3.96 1.98 3.96 1.98 8 4 C8 4.33 8 4.66 8 5 C1.25 4.125 1.25 4.125 -1 3 C-0.67 2.01 -0.34 1.02 0 0 Z " fill="#F0E4E9" transform="translate(988,477)"/>
<path d="M0 0 C-0.928125 0.4021875 -0.928125 0.4021875 -1.875 0.8125 C-4.2995233 1.95556848 -4.2995233 1.95556848 -6 5 C-6.66 4.67 -7.32 4.34 -8 4 C-7.6875 2.0625 -7.6875 2.0625 -7 0 C-3.86650268 -1.04449911 -3.01031744 -0.93423645 0 0 Z " fill="#5E5C6B" transform="translate(656,585)"/>
<path d="M0 0 C0.33 0 0.66 0 1 0 C0.88655624 2.1464753 0.75893655 4.29220592 0.625 6.4375 C0.52058594 8.22994141 0.52058594 8.22994141 0.4140625 10.05859375 C0.27742188 11.02925781 0.14078125 11.99992188 0 13 C-0.99 13.495 -0.99 13.495 -2 14 C-3.27446435 10.17660695 -2.34278151 8.72994863 -1 5 C-0.63893903 3.33911955 -0.29537827 1.67381019 0 0 Z " fill="#244172" transform="translate(1065,545)"/>
<path d="M0 0 C2.97 0.495 2.97 0.495 6 1 C5.67 1.66 5.34 2.32 5 3 C4.34 3 3.68 3 3 3 C2.67 3.66 2.34 4.32 2 5 C1.34 4.67 0.68 4.34 0 4 C0 2.68 0 1.36 0 0 Z " fill="#EEEDF6" transform="translate(635,762)"/>
<path d="M0 0 C0.99 0.33 1.98 0.66 3 1 C0.36 2.98 -2.28 4.96 -5 7 C-5 6.01 -5 5.02 -5 4 C-2.6875 1.75 -2.6875 1.75 0 0 Z " fill="#B43F45" transform="translate(979,752)"/>
<path d="M0 0 C0.66 0.33 1.32 0.66 2 1 C-1.465 3.97 -1.465 3.97 -5 7 C-5.66 6.67 -6.32 6.34 -7 6 C-4.69 4.02 -2.38 2.04 0 0 Z " fill="#EDF0F8" transform="translate(973,715)"/>
<path d="M0 0 C0.66 0.66 1.32 1.32 2 2 C1.625 4.625 1.625 4.625 1 7 C0.01 6.67 -0.98 6.34 -2 6 C-1.34 4.02 -0.68 2.04 0 0 Z " fill="#E8E8F3" transform="translate(1044,619)"/>
<path d="M0 0 C0 0.99 0 1.98 0 3 C-2.5 5.1875 -2.5 5.1875 -5 7 C-5.66 6.67 -6.32 6.34 -7 6 C-4.69 4.02 -2.38 2.04 0 0 Z " fill="#D9EBF6" transform="translate(588,289)"/>
</svg>
